<svg width="65" height="24" viewBox="0 0 65 24" fill="none" xmlns="http://www.w3.org/2000/svg">
<path d="M6.42283 23.912H4.23883V21.13C2.81749 20.9913 1.61283 20.636 0.624828 20.064V17.282C1.99416 18.3047 3.58016 18.816 5.38283 18.816C6.33616 18.816 7.09016 18.5993 7.64483 18.166C8.21683 17.7153 8.50283 17.1 8.50283 16.32C8.50283 16.1293 8.4855 15.956 8.45083 15.8C8.41616 15.6267 8.34683 15.462 8.24283 15.306C8.13883 15.15 8.0435 15.02 7.95683 14.916C7.87016 14.7947 7.72283 14.6733 7.51483 14.552C7.32416 14.4133 7.16816 14.3093 7.04683 14.24C6.94283 14.1533 6.75216 14.0493 6.47483 13.928C6.21483 13.7893 6.02416 13.694 5.90283 13.642C5.7815 13.5727 5.55616 13.4687 5.22683 13.33C4.8975 13.1913 4.67216 13.096 4.55083 13.044C3.28549 12.472 2.29749 11.8307 1.58683 11.12C0.876162 10.4093 0.520828 9.43 0.520828 8.182C0.520828 6.81267 0.980162 5.70333 1.89883 4.854C2.8175 4.00467 4.03083 3.51067 5.53883 3.372V0.589999H7.74883V3.424C8.78883 3.58 9.66416 3.83133 10.3748 4.178V6.83C9.23083 6.102 7.9135 5.738 6.42283 5.738C5.4695 5.738 4.72416 5.95467 4.18683 6.388C3.64949 6.804 3.38083 7.35867 3.38083 8.052C3.38083 8.43333 3.45883 8.78 3.61483 9.092C3.78816 9.38667 4.07416 9.67267 4.47283 9.95C4.88883 10.21 5.23549 10.4093 5.51283 10.548C5.8075 10.6867 6.26683 10.8947 6.89083 11.172C7.5495 11.4667 8.08683 11.7353 8.50283 11.978C8.91883 12.2033 9.3695 12.5153 9.85483 12.914C10.3402 13.3127 10.6955 13.7893 10.9208 14.344C11.1635 14.8813 11.2848 15.5053 11.2848 16.216C11.2848 17.62 10.8428 18.7553 9.95883 19.622C9.07483 20.4713 7.89616 20.974 6.42283 21.13V23.912ZM19.4446 21H16.9226V6.778L12.8926 9.248V6.518L17.1306 3.996H19.4446V21ZM27.8645 12.784C29.1818 12.784 30.2478 12.2727 31.0625 11.25C31.0278 9.65533 30.7332 8.39867 30.1785 7.48C29.6412 6.56133 28.8265 6.102 27.7345 6.102C26.8332 6.102 26.1138 6.40533 25.5765 7.012C25.0392 7.60133 24.7705 8.40733 24.7705 9.43C24.7705 10.47 25.0478 11.2933 25.6025 11.9C26.1745 12.4893 26.9285 12.784 27.8645 12.784ZM33.5845 11.484C33.5845 14.5693 32.9258 16.9613 31.6085 18.66C30.3085 20.3587 28.4365 21.208 25.9925 21.208C24.8832 21.208 23.8865 21.0433 23.0025 20.714V18.244C23.8865 18.6427 24.8225 18.842 25.8105 18.842C28.7918 18.842 30.5078 17.074 30.9585 13.538C30.1265 14.4913 28.8872 14.968 27.2405 14.968C25.8192 14.968 24.6058 14.4653 23.6005 13.46C22.6125 12.4547 22.1185 11.1287 22.1185 9.482C22.1185 7.83533 22.6125 6.47467 23.6005 5.4C24.5885 4.32533 25.9318 3.788 27.6305 3.788C29.5718 3.788 31.0452 4.50733 32.0505 5.946C33.0732 7.36733 33.5845 9.21333 33.5845 11.484ZM38.3612 18.218C38.7079 18.5473 38.8812 18.9547 38.8812 19.44C38.8812 19.9253 38.7079 20.3413 38.3612 20.688C38.0319 21.0347 37.6245 21.208 37.1392 21.208C36.6365 21.208 36.2119 21.0347 35.8652 20.688C35.5359 20.3413 35.3712 19.9253 35.3712 19.44C35.3712 18.9547 35.5359 18.5473 35.8652 18.218C36.2119 17.8713 36.6365 17.698 37.1392 17.698C37.6245 17.698 38.0319 17.8713 38.3612 18.218ZM51.7605 15.592C51.7605 17.2907 51.1972 18.6513 50.0705 19.674C48.9612 20.6793 47.4099 21.182 45.4165 21.182C43.6312 21.182 42.1579 20.8873 40.9965 20.298V17.828C42.1059 18.504 43.4405 18.842 45.0005 18.842C47.7392 18.842 49.1085 17.7327 49.1085 15.514C49.1085 14.63 48.7965 13.9453 48.1725 13.46C47.5659 12.9573 46.7425 12.706 45.7025 12.706C44.3852 12.706 43.0852 13.0093 41.8025 13.616V3.97H50.6165V6.18H44.3245V10.652C44.9659 10.5133 45.5552 10.444 46.0925 10.444C47.8605 10.444 49.2472 10.912 50.2525 11.848C51.2579 12.7667 51.7605 14.0147 51.7605 15.592ZM64.9383 15.592C64.9383 17.2907 64.3749 18.6513 63.2483 19.674C62.1389 20.6793 60.5876 21.182 58.5943 21.182C56.8089 21.182 55.3356 20.8873 54.1743 20.298V17.828C55.2836 18.504 56.6183 18.842 58.1783 18.842C60.9169 18.842 62.2863 17.7327 62.2863 15.514C62.2863 14.63 61.9743 13.9453 61.3503 13.46C60.7436 12.9573 59.9203 12.706 58.8803 12.706C57.5629 12.706 56.2629 13.0093 54.9803 13.616V3.97H63.7943V6.18H57.5023V10.652C58.1436 10.5133 58.7329 10.444 59.2703 10.444C61.0383 10.444 62.4249 10.912 63.4303 11.848C64.4356 12.7667 64.9383 14.0147 64.9383 15.592Z" fill="black"/>
</svg>
