<svg width="54" height="19" viewBox="0 0 54 19" fill="none" xmlns="http://www.w3.org/2000/svg">
<g opacity="0.7">
<path d="M5.35891 18.24H3.67891V16.1C2.58557 15.9933 1.65891 15.72 0.898906 15.28V13.14C1.95224 13.9267 3.17224 14.32 4.55891 14.32C5.29224 14.32 5.87224 14.1533 6.29891 13.82C6.73891 13.4733 6.95891 13 6.95891 12.4C6.95891 12.2533 6.94557 12.12 6.91891 12C6.89224 11.8667 6.83891 11.74 6.75891 11.62C6.67891 11.5 6.60557 11.4 6.53891 11.32C6.47224 11.2267 6.35891 11.1333 6.19891 11.04C6.05224 10.9333 5.93224 10.8533 5.83891 10.8C5.75891 10.7333 5.61224 10.6533 5.39891 10.56C5.19891 10.4533 5.05224 10.38 4.95891 10.34C4.86557 10.2867 4.69224 10.2067 4.43891 10.1C4.18557 9.99333 4.01224 9.92 3.91891 9.88C2.94557 9.44 2.18557 8.94667 1.63891 8.4C1.09224 7.85333 0.818906 7.1 0.818906 6.14C0.818906 5.08667 1.17224 4.23333 1.87891 3.58C2.58557 2.92667 3.51891 2.54667 4.67891 2.44V0.299999H6.37891V2.48C7.17891 2.6 7.85224 2.79333 8.39891 3.06V5.1C7.51891 4.54 6.50557 4.26 5.35891 4.26C4.62557 4.26 4.05224 4.42667 3.63891 4.76C3.22557 5.08 3.01891 5.50667 3.01891 6.04C3.01891 6.33333 3.07891 6.6 3.19891 6.84C3.33224 7.06667 3.55224 7.28667 3.85891 7.5C4.17891 7.7 4.44557 7.85333 4.65891 7.96C4.88557 8.06667 5.23891 8.22667 5.71891 8.44C6.22557 8.66667 6.63891 8.87333 6.95891 9.06C7.27891 9.23333 7.62557 9.47333 7.99891 9.78C8.37224 10.0867 8.64557 10.4533 8.81891 10.88C9.00557 11.2933 9.09891 11.7733 9.09891 12.32C9.09891 13.4 8.75891 14.2733 8.07891 14.94C7.39891 15.5933 6.49224 15.98 5.35891 16.1V18.24ZM19.1156 16H10.7356V14.38C12.4156 13.1533 13.829 11.8867 14.9756 10.58C16.1356 9.26 16.7156 8.06 16.7156 6.98C16.7156 6.22 16.4956 5.64 16.0556 5.24C15.6156 4.82667 15.009 4.62 14.2356 4.62C13.169 4.62 12.1223 5.02 11.0956 5.82V3.88C12.0556 3.14667 13.1956 2.78 14.5156 2.78C15.7423 2.78 16.7556 3.12667 17.5556 3.82C18.3556 4.5 18.7556 5.47333 18.7556 6.74C18.7556 9.08667 16.9823 11.6067 13.4356 14.3H19.1156V16ZM29.0375 16H20.6575V14.38C22.3375 13.1533 23.7508 11.8867 24.8975 10.58C26.0575 9.26 26.6375 8.06 26.6375 6.98C26.6375 6.22 26.4175 5.64 25.9775 5.24C25.5375 4.82667 24.9308 4.62 24.1575 4.62C23.0908 4.62 22.0442 5.02 21.0175 5.82V3.88C21.9775 3.14667 23.1175 2.78 24.4375 2.78C25.6642 2.78 26.6775 3.12667 27.4775 3.82C28.2775 4.5 28.6775 5.47333 28.6775 6.74C28.6775 9.08667 26.9042 11.6067 23.3575 14.3H29.0375V16ZM32.7394 13.86C33.006 14.1133 33.1394 14.4267 33.1394 14.8C33.1394 15.1733 33.006 15.4933 32.7394 15.76C32.486 16.0267 32.1727 16.16 31.7994 16.16C31.4127 16.16 31.086 16.0267 30.8194 15.76C30.566 15.4933 30.4394 15.1733 30.4394 14.8C30.4394 14.4267 30.566 14.1133 30.8194 13.86C31.086 13.5933 31.4127 13.46 31.7994 13.46C32.1727 13.46 32.486 13.5933 32.7394 13.86ZM43.0466 11.84C43.0466 13.1467 42.6132 14.1933 41.7466 14.98C40.8932 15.7533 39.6999 16.14 38.1666 16.14C36.7932 16.14 35.6599 15.9133 34.7666 15.46V13.56C35.6199 14.08 36.6466 14.34 37.8466 14.34C39.9532 14.34 41.0066 13.4867 41.0066 11.78C41.0066 11.1 40.7666 10.5733 40.2866 10.2C39.8199 9.81333 39.1866 9.62 38.3866 9.62C37.3732 9.62 36.3732 9.85333 35.3866 10.32V2.9H42.1666V4.6H37.3266V8.04C37.8199 7.93333 38.2732 7.88 38.6866 7.88C40.0466 7.88 41.1132 8.24 41.8866 8.96C42.6599 9.66667 43.0466 10.6267 43.0466 11.84ZM53.1833 11.84C53.1833 13.1467 52.7499 14.1933 51.8833 14.98C51.0299 15.7533 49.8366 16.14 48.3033 16.14C46.9299 16.14 45.7966 15.9133 44.9033 15.46V13.56C45.7566 14.08 46.7833 14.34 47.9833 14.34C50.0899 14.34 51.1433 13.4867 51.1433 11.78C51.1433 11.1 50.9033 10.5733 50.4233 10.2C49.9566 9.81333 49.3233 9.62 48.5233 9.62C47.5099 9.62 46.5099 9.85333 45.5233 10.32V2.9H52.3033V4.6H47.4633V8.04C47.9566 7.93333 48.4099 7.88 48.8233 7.88C50.1833 7.88 51.2499 8.24 52.0233 8.96C52.7966 9.66667 53.1833 10.6267 53.1833 11.84Z" fill="black"/>
<path d="M-0.121094 9.94H54.0033V10.94H-0.121094V9.94Z" fill="black"/>
</g>
</svg>
